<svg xmlns="http://www.w3.org/2000/svg" viewBox="0 0 96 101">
    <g fill="none" fill-rule="evenodd">
        <g transform="translate(0 0)">
            <path fill="#FFAB19" d="M19.3 15.7L8.6 0.3c-1.4-2-4.3-2.1-5.8-.1L-7.8 15.4c-1.1 1.5-.5 3.6 1.2 4.2l11.5 4c.6.2 1.1.6 1.4 1.1l5.9 10.4c.8 1.4 2.8 1.5 3.8.2l7.3-9.7c.7-.9.7-2.2.1-3.2l-4.1-6.7z"/>
            <path fill="#FFAB19" d="M64.7 15.7l10.7-15.4c1.4-2 4.3-2.1 5.8-.1l10.6 15.2c1.1 1.5.5 3.6-1.2 4.2l-11.5 4c-.6.2-1.1.6-1.4 1.1l-5.9 10.4c-.8 1.4-2.8 1.5-3.8.2l-7.3-9.7c-.7-.9-.7-2.2-.1-3.2l4.1-6.7z"/>
            <ellipse cx="48" cy="60" rx="38" ry="38" fill="#FFAB19"/>
            <ellipse cx="48" cy="60" rx="32" ry="32" fill="#FFCC80"/>
            <circle cx="36" cy="52" r="5" fill="#FFF"/>
            <circle cx="60" cy="52" r="5" fill="#FFF"/>
            <circle cx="37.5" cy="53" r="3" fill="#393939"/>
            <circle cx="61.5" cy="53" r="3" fill="#393939"/>
            <ellipse cx="48" cy="63" rx="4" ry="3" fill="#FC9D9A"/>
            <path stroke="#393939" stroke-width="1.5" stroke-linecap="round" d="M44 67 Q48 72 52 67"/>
            <line x1="20" y1="55" x2="32" y2="58" stroke="#FFAB19" stroke-width="1.5" stroke-linecap="round"/>
            <line x1="20" y1="62" x2="32" y2="62" stroke="#FFAB19" stroke-width="1.5" stroke-linecap="round"/>
            <line x1="64" y1="58" x2="76" y2="55" stroke="#FFAB19" stroke-width="1.5" stroke-linecap="round"/>
            <line x1="64" y1="62" x2="76" y2="62" stroke="#FFAB19" stroke-width="1.5" stroke-linecap="round"/>
        </g>
    </g>
</svg>