<svg width="32" height="32" viewBox="0 0 32 32" fill="none" xmlns="http://www.w3.org/2000/svg">
<path d="M8 14.6667H13.3333" stroke="currentColor" stroke-width="2.66667" stroke-linecap="round" stroke-linejoin="round"/>
<path d="M10.6667 12V17.3333" stroke="currentColor" stroke-width="2.66667" stroke-linecap="round" stroke-linejoin="round"/>
<path d="M20 16H20.0133" stroke="currentColor" stroke-width="2.66667" stroke-linecap="round" stroke-linejoin="round"/>
<path d="M24 13.3333H24.0133" stroke="currentColor" stroke-width="2.66667" stroke-linecap="round" stroke-linejoin="round"/>
<path d="M23.0934 6.66669H8.90675C7.58712 6.66699 6.31446 7.15652 5.33479 8.04064C4.35512 8.92476 3.73801 10.1407 3.60275 11.4534C3.59475 11.5227 3.58941 11.588 3.58008 11.656C3.47208 12.5547 2.66675 19.2747 2.66675 21.3334C2.66675 22.3942 3.08818 23.4116 3.83832 24.1618C4.58847 24.9119 5.60588 25.3334 6.66675 25.3334C8.00008 25.3334 8.66675 24.6667 9.33341 24L11.2187 22.1147C11.7187 21.6146 12.3969 21.3335 13.1041 21.3334H18.8961C19.6033 21.3335 20.2814 21.6146 20.7814 22.1147L22.6667 24C23.3334 24.6667 24.0001 25.3334 25.3334 25.3334C26.3943 25.3334 27.4117 24.9119 28.1618 24.1618C28.912 23.4116 29.3334 22.3942 29.3334 21.3334C29.3334 19.2734 28.5281 12.5547 28.4201 11.656C28.4107 11.5894 28.4054 11.5227 28.3974 11.4547C28.2625 10.1418 27.6455 8.92552 26.6658 8.04113C25.6861 7.15674 24.4132 6.66703 23.0934 6.66669Z" stroke="currentColor" stroke-width="2.66667" stroke-linecap="round" stroke-linejoin="round"/>
</svg>
