<svg width="16" height="16" viewBox="0 0 16 16" fill="none" xmlns="http://www.w3.org/2000/svg">
<path d="M14.2801 7.28133C14.3995 7.22868 14.5007 7.14218 14.5714 7.03253C14.6421 6.92289 14.679 6.79492 14.6777 6.66449C14.6763 6.53405 14.6367 6.40688 14.5638 6.29872C14.4909 6.19056 14.3879 6.10617 14.2674 6.056L8.55344 3.45333C8.37973 3.3741 8.19104 3.33309 8.00011 3.33309C7.80918 3.33309 7.62048 3.3741 7.44678 3.45333L1.73344 6.05333C1.61475 6.10531 1.51379 6.19075 1.44289 6.29921C1.37199 6.40766 1.33423 6.53442 1.33423 6.664C1.33423 6.79357 1.37199 6.92033 1.44289 7.02879C1.51379 7.13724 1.61475 7.22268 1.73344 7.27466L7.44678 9.88C7.62048 9.95923 7.80918 10.0002 8.00011 10.0002C8.19104 10.0002 8.37973 9.95923 8.55344 9.88L14.2801 7.28133Z" stroke="white" stroke-width="1.33333" stroke-linecap="round" stroke-linejoin="round"/>
<path d="M14.6667 6.66666V10.6667" stroke="white" stroke-width="1.33333" stroke-linecap="round" stroke-linejoin="round"/>
<path d="M4 8.33334V10.6667C4 11.1971 4.42143 11.7058 5.17157 12.0809C5.92172 12.456 6.93913 12.6667 8 12.6667C9.06087 12.6667 10.0783 12.456 10.8284 12.0809C11.5786 11.7058 12 11.1971 12 10.6667V8.33334" stroke="white" stroke-width="1.33333" stroke-linecap="round" stroke-linejoin="round"/>
</svg>
